G04*
G04 #@! TF.GenerationSoftware,Altium Limited,Altium Designer,22.2.1 (43)*
G04*
G04 Layer_Color=32896*
%FSLAX25Y25*%
%MOIN*%
G70*
G04*
G04 #@! TF.SameCoordinates,AAFBACAA-EC33-4654-A321-DB7F653A4B28*
G04*
G04*
G04 #@! TF.FilePolarity,Positive*
G04*
G01*
G75*
%ADD10C,0.00787*%
%ADD11C,0.01000*%
D10*
X169685Y7480D02*
Y42520D01*
X142126Y20111D02*
X197244D01*
X142126Y30203D02*
X197244D01*
X173228Y106299D02*
X200787D01*
D11*
X173228Y94488D02*
X200787D01*
X173228Y118110D02*
X200787D01*
Y94488D02*
Y118110D01*
X173228Y94488D02*
Y118110D01*
X142126Y7480D02*
X197244D01*
X142126Y42913D02*
X197244D01*
Y7480D02*
Y42913D01*
X142126Y7480D02*
Y42913D01*
X194356Y39281D02*
Y35283D01*
X192357Y33283D01*
X190357Y35283D01*
Y39281D01*
X184359Y38282D02*
X185359Y39281D01*
X187358D01*
X188358Y38282D01*
Y34283D01*
X187358Y33283D01*
X185359D01*
X184359Y34283D01*
X178361Y38282D02*
X179361Y39281D01*
X181360D01*
X182360Y38282D01*
Y34283D01*
X181360Y33283D01*
X179361D01*
X178361Y34283D01*
X194276Y22260D02*
Y28258D01*
X192276Y26259D01*
X190277Y28258D01*
Y22260D01*
X185278Y28258D02*
X187278D01*
X188277Y27258D01*
Y23259D01*
X187278Y22260D01*
X185278D01*
X184279Y23259D01*
Y27258D01*
X185278Y28258D01*
X178281Y27258D02*
X179280Y28258D01*
X181280D01*
X182280Y27258D01*
Y26259D01*
X181280Y25259D01*
X179280D01*
X178281Y24259D01*
Y23259D01*
X179280Y22260D01*
X181280D01*
X182280Y23259D01*
X176281Y28258D02*
X174282D01*
X175282D01*
Y22260D01*
X176281D01*
X174282D01*
X190357Y16628D02*
X191357Y17628D01*
X193356D01*
X194356Y16628D01*
Y12630D01*
X193356Y11630D01*
X191357D01*
X190357Y12630D01*
Y14629D01*
X192357D01*
X188358Y11630D02*
Y17628D01*
X184359Y11630D01*
Y17628D01*
X182360D02*
Y11630D01*
X179361D01*
X178361Y12630D01*
Y16628D01*
X179361Y17628D01*
X182360D01*
X166323Y10842D02*
Y16841D01*
X163324D01*
X162324Y15841D01*
Y13842D01*
X163324Y12842D01*
X166323D01*
X164323D02*
X162324Y10842D01*
X156326Y15841D02*
X157326Y16841D01*
X159325D01*
X160325Y15841D01*
Y14841D01*
X159325Y13842D01*
X157326D01*
X156326Y12842D01*
Y11842D01*
X157326Y10842D01*
X159325D01*
X160325Y11842D01*
X154327Y16841D02*
X150328D01*
X152327D01*
Y10842D01*
X162324Y27258D02*
X163324Y28258D01*
X165323D01*
X166323Y27258D01*
Y26259D01*
X165323Y25259D01*
X163324D01*
X162324Y24259D01*
Y23259D01*
X163324Y22260D01*
X165323D01*
X166323Y23259D01*
X156326Y27258D02*
X157326Y28258D01*
X159325D01*
X160325Y27258D01*
Y23259D01*
X159325Y22260D01*
X157326D01*
X156326Y23259D01*
X154327Y28258D02*
Y22260D01*
Y24259D01*
X150328Y28258D01*
X153327Y25259D01*
X150328Y22260D01*
X166323Y33283D02*
Y39281D01*
X164323Y37282D01*
X162324Y39281D01*
Y33283D01*
X160325Y39281D02*
X158325D01*
X159325D01*
Y33283D01*
X160325D01*
X158325D01*
X151328Y38282D02*
X152327Y39281D01*
X154327D01*
X155326Y38282D01*
Y37282D01*
X154327Y36283D01*
X152327D01*
X151328Y35283D01*
Y34283D01*
X152327Y33283D01*
X154327D01*
X155326Y34283D01*
X146329Y39281D02*
X148329D01*
X149328Y38282D01*
Y34283D01*
X148329Y33283D01*
X146329D01*
X145330Y34283D01*
Y38282D01*
X146329Y39281D01*
X191064Y113872D02*
X192064Y114872D01*
X194063D01*
X195063Y113872D01*
Y112873D01*
X194063Y111873D01*
X192064D01*
X191064Y110873D01*
Y109874D01*
X192064Y108874D01*
X194063D01*
X195063Y109874D01*
X185066Y113872D02*
X186066Y114872D01*
X188065D01*
X189065Y113872D01*
Y109874D01*
X188065Y108874D01*
X186066D01*
X185066Y109874D01*
X183067Y114872D02*
Y108874D01*
X179068D01*
X191064Y102455D02*
X192064Y103455D01*
X194063D01*
X195063Y102455D01*
Y101455D01*
X194063Y100456D01*
X192064D01*
X191064Y99456D01*
Y98456D01*
X192064Y97457D01*
X194063D01*
X195063Y98456D01*
X189065Y103455D02*
Y97457D01*
X186066D01*
X185066Y98456D01*
Y102455D01*
X186066Y103455D01*
X189065D01*
X183067Y97457D02*
Y101455D01*
X181068Y103455D01*
X179068Y101455D01*
Y97457D01*
Y100456D01*
X183067D01*
M02*
