G04*
G04 #@! TF.GenerationSoftware,Altium Limited,Altium Designer,22.2.1 (43)*
G04*
G04 Layer_Physical_Order=1*
G04 Layer_Color=255*
%FSLAX25Y25*%
%MOIN*%
G70*
G04*
G04 #@! TF.SameCoordinates,AAFBACAA-EC33-4654-A321-DB7F653A4B28*
G04*
G04*
G04 #@! TF.FilePolarity,Positive*
G04*
G01*
G75*
%ADD10C,0.00787*%
%ADD15R,0.12520X0.05000*%
%ADD16R,0.11811X0.03937*%
%ADD17R,0.13504X0.05000*%
%ADD18R,0.03937X0.11811*%
G04:AMPARAMS|DCode=19|XSize=25.98mil|YSize=41.34mil|CornerRadius=6.89mil|HoleSize=0mil|Usage=FLASHONLY|Rotation=90.000|XOffset=0mil|YOffset=0mil|HoleType=Round|Shape=RoundedRectangle|*
%AMROUNDEDRECTD19*
21,1,0.02598,0.02757,0,0,90.0*
21,1,0.01221,0.04134,0,0,90.0*
1,1,0.01377,0.01378,0.00611*
1,1,0.01377,0.01378,-0.00611*
1,1,0.01377,-0.01378,-0.00611*
1,1,0.01377,-0.01378,0.00611*
%
%ADD19ROUNDEDRECTD19*%
%ADD20R,0.04528X0.12598*%
%ADD21R,0.07874X0.07874*%
%ADD22R,0.05940X0.11200*%
%ADD23R,0.02400X0.03500*%
%ADD24R,0.08400X0.07087*%
%ADD25R,0.08400X0.07087*%
G04:AMPARAMS|DCode=26|XSize=62.99mil|YSize=19.68mil|CornerRadius=5.22mil|HoleSize=0mil|Usage=FLASHONLY|Rotation=270.000|XOffset=0mil|YOffset=0mil|HoleType=Round|Shape=RoundedRectangle|*
%AMROUNDEDRECTD26*
21,1,0.06299,0.00925,0,0,270.0*
21,1,0.05256,0.01968,0,0,270.0*
1,1,0.01043,-0.00463,-0.02628*
1,1,0.01043,-0.00463,0.02628*
1,1,0.01043,0.00463,0.02628*
1,1,0.01043,0.00463,-0.02628*
%
%ADD26ROUNDEDRECTD26*%
G04:AMPARAMS|DCode=27|XSize=62.99mil|YSize=19.68mil|CornerRadius=5.22mil|HoleSize=0mil|Usage=FLASHONLY|Rotation=180.000|XOffset=0mil|YOffset=0mil|HoleType=Round|Shape=RoundedRectangle|*
%AMROUNDEDRECTD27*
21,1,0.06299,0.00925,0,0,180.0*
21,1,0.05256,0.01968,0,0,180.0*
1,1,0.01043,-0.02628,0.00463*
1,1,0.01043,0.02628,0.00463*
1,1,0.01043,0.02628,-0.00463*
1,1,0.01043,-0.02628,-0.00463*
%
%ADD27ROUNDEDRECTD27*%
%ADD28R,0.06693X0.02559*%
%ADD29R,0.22047X0.08268*%
%ADD30R,0.06299X0.05512*%
%ADD31R,0.02559X0.06693*%
%ADD32R,0.01083X0.00984*%
%ADD33R,0.00984X0.01083*%
%ADD34R,0.09882X0.04331*%
%ADD35R,0.12795X0.08465*%
%ADD36R,0.03740X0.08465*%
%ADD59C,0.01575*%
%ADD60C,0.03150*%
%ADD61C,0.01500*%
%ADD62C,0.07087*%
%ADD63C,0.06299*%
%ADD64C,0.02362*%
D10*
X167809Y102730D02*
Y103498D01*
X165669Y100541D02*
Y100591D01*
X167809Y102730D01*
Y103498D02*
X168110Y103799D01*
X164162D02*
X168110D01*
X163701Y103338D02*
X164162Y103799D01*
X163701Y100541D02*
Y103338D01*
X180118Y88779D02*
X182579Y91240D01*
X184646D01*
X163701Y88779D02*
X180118D01*
X182539Y101299D02*
X184646Y99193D01*
Y91240D02*
Y99193D01*
X181063Y101299D02*
X182539D01*
X171653Y99980D02*
Y106299D01*
X190945D01*
X168327Y96654D02*
X171653Y99980D01*
X163406Y106299D02*
X171653D01*
X166801Y96654D02*
X168327D01*
X166703Y96555D02*
X166801Y96654D01*
X191831Y81201D02*
Y105413D01*
X166703Y96555D02*
X166752D01*
X161732Y100541D02*
Y104626D01*
X163406Y106299D01*
X190945D02*
X191831Y105413D01*
X194665Y109193D02*
X199444D01*
X205610Y100960D02*
Y103027D01*
X199444Y109193D02*
X205610Y103027D01*
X192559Y111299D02*
X194665Y109193D01*
X155118Y106299D02*
X160118Y111299D01*
X192559D01*
X155118Y96555D02*
Y106299D01*
X205271Y101299D02*
X205610Y100960D01*
X148819Y82008D02*
Y93996D01*
X151969Y82008D02*
Y86811D01*
X153937Y88779D02*
X163701D01*
X151969Y86811D02*
X153937Y88779D01*
X151378Y96555D02*
X155118D01*
X148819Y93996D02*
X151378Y96555D01*
X156201Y91634D02*
X160551D01*
X155118Y96555D02*
X160699D01*
X163701Y88779D02*
Y94537D01*
X160551Y91634D02*
X161732Y92815D01*
Y94537D01*
D15*
X158543Y25197D02*
D03*
X180039D02*
D03*
Y15197D02*
D03*
X158543D02*
D03*
Y35197D02*
D03*
X180039D02*
D03*
D16*
X186070Y55246D02*
D03*
Y65482D02*
D03*
X230709Y100787D02*
D03*
Y90551D02*
D03*
D17*
X192559Y111299D02*
D03*
X181063Y101299D02*
D03*
D18*
X107874Y67635D02*
D03*
X97638D02*
D03*
X122047Y100591D02*
D03*
X111811D02*
D03*
X233465Y129317D02*
D03*
X223228D02*
D03*
X175984Y133500D02*
D03*
X186220D02*
D03*
X14567Y21260D02*
D03*
X24803D02*
D03*
D19*
X200236Y137795D02*
D03*
Y134055D02*
D03*
Y130315D02*
D03*
X210433D02*
D03*
Y137795D02*
D03*
D20*
X88189Y122244D02*
D03*
X81102D02*
D03*
D21*
X23425Y136811D02*
D03*
X47638D02*
D03*
X23425Y93504D02*
D03*
X47638D02*
D03*
D22*
X61006Y78937D02*
D03*
X72852D02*
D03*
D23*
X88292Y92323D02*
D03*
Y100984D02*
D03*
D24*
X33071Y76181D02*
D03*
D25*
X16271D02*
D03*
D26*
X136220Y82008D02*
D03*
X139370D02*
D03*
X142520D02*
D03*
X145669D02*
D03*
X148819D02*
D03*
X151969D02*
D03*
X155118D02*
D03*
X158268D02*
D03*
Y49095D02*
D03*
X155118D02*
D03*
X151969D02*
D03*
X148819D02*
D03*
X145669D02*
D03*
X142520D02*
D03*
X139370D02*
D03*
X136220D02*
D03*
D27*
X163701Y76575D02*
D03*
Y73425D02*
D03*
Y70276D02*
D03*
Y67126D02*
D03*
Y63976D02*
D03*
Y60827D02*
D03*
Y57677D02*
D03*
Y54528D02*
D03*
X130787D02*
D03*
Y57677D02*
D03*
Y60827D02*
D03*
Y63976D02*
D03*
Y67126D02*
D03*
Y70276D02*
D03*
Y73425D02*
D03*
Y76575D02*
D03*
D28*
X135827Y94587D02*
D03*
Y104626D02*
D03*
X184646Y81201D02*
D03*
Y91240D02*
D03*
D29*
X75098Y37402D02*
D03*
X112500D02*
D03*
D30*
X101968Y122244D02*
D03*
X130315D02*
D03*
X101968Y134055D02*
D03*
X130315D02*
D03*
D31*
X236220Y53347D02*
D03*
X226181D02*
D03*
X215453Y29724D02*
D03*
X225492D02*
D03*
X215650Y100960D02*
D03*
X205610D02*
D03*
D32*
X160699Y98524D02*
D03*
Y96555D02*
D03*
X166703D02*
D03*
Y98524D02*
D03*
D33*
X161732Y94537D02*
D03*
X163701D02*
D03*
X165669D02*
D03*
Y100541D02*
D03*
X163701D02*
D03*
X161732D02*
D03*
D34*
X112205Y18504D02*
D03*
Y9449D02*
D03*
X72835Y18504D02*
D03*
Y9449D02*
D03*
D35*
X24016Y38386D02*
D03*
D36*
X14961Y61221D02*
D03*
X24016D02*
D03*
X33071D02*
D03*
D59*
X111811Y96654D02*
Y104528D01*
X98819Y92323D02*
X107480D01*
X111811Y96654D01*
X101968Y114370D02*
X106299Y110039D01*
X106299D01*
X111811Y104528D01*
X101968Y114370D02*
Y122244D01*
X122047Y96654D02*
Y104528D01*
X130315Y112795D02*
Y122244D01*
X122047Y104528D02*
X130315Y112795D01*
X88851Y79009D02*
X104402D01*
X122047Y96654D01*
X57087Y47244D02*
X88851Y79009D01*
X57087Y9210D02*
Y47244D01*
Y9210D02*
X62163Y4134D01*
X143720D01*
X154783Y15197D01*
X158543D01*
X135827Y104626D02*
X136319Y104134D01*
X138386D01*
X145669D01*
X133760Y94587D02*
X135827D01*
X133268Y94095D02*
X133760Y94587D01*
X130397Y94095D02*
X133268D01*
X107874Y71572D02*
X130397Y94095D01*
X107874Y67635D02*
Y71572D01*
X197945Y65615D02*
X198078Y65748D01*
X186070Y65482D02*
X186203Y65615D01*
X197945D01*
X72835Y9449D02*
X112205D01*
X62811Y11811D02*
X65174Y9449D01*
X72835D01*
X62598Y11811D02*
X62811D01*
X176939Y55246D02*
X183314D01*
X182133Y54065D02*
X183314Y55246D01*
X182133Y46113D02*
Y54065D01*
X183314Y55246D02*
X186070D01*
X191831Y81201D02*
X201402D01*
X184646D02*
X191831D01*
X176939Y72963D02*
X201447D01*
X208661Y65748D01*
Y50394D02*
Y65748D01*
X167894Y82008D02*
X176939Y72963D01*
X158268Y82008D02*
X167894D01*
X163701Y63976D02*
X180627D01*
X182133Y65482D01*
X186070D01*
X180489Y67126D02*
X182133Y65482D01*
X163701Y67126D02*
X180489D01*
X174508Y57677D02*
X176939Y55246D01*
X186070D02*
X190007D01*
X194156Y51097D01*
Y51021D02*
Y51097D01*
X215453Y29724D02*
Y31641D01*
X214961Y32133D02*
X215453Y31641D01*
X213044Y32133D02*
X214961D01*
X194156Y51021D02*
X213044Y32133D01*
X163701Y57677D02*
X174508D01*
X223228Y114370D02*
Y129317D01*
X201402Y81201D02*
X215453Y95252D01*
Y100763D02*
X215650Y100960D01*
X215453Y95252D02*
Y100763D01*
X230709Y100787D02*
X231299D01*
X215626D02*
X231299D01*
X108383Y67126D02*
X130787D01*
X107874Y67635D02*
X108383Y67126D01*
X113287Y60827D02*
X130787D01*
X111209Y62905D02*
X113287Y60827D01*
X109055Y62905D02*
X111209D01*
X107874Y64086D02*
X109055Y62905D01*
X175984Y125984D02*
Y133500D01*
Y125984D02*
X177559Y124409D01*
X201833D01*
X204724Y127301D01*
Y131391D01*
X200630Y133661D02*
X202454D01*
X200236Y134055D02*
X200630Y133661D01*
X202454D02*
X204724Y131391D01*
X230709Y84941D02*
X236516Y79134D01*
X230709Y84941D02*
Y90551D01*
X231717Y89543D01*
X232480Y101969D02*
Y105118D01*
X231299Y100787D02*
X232480Y101969D01*
X223228Y114370D02*
X225197Y112402D01*
X225197D01*
X232480Y105118D01*
X171161Y20079D02*
X176279Y25197D01*
X180039D01*
X145669Y20079D02*
X171161D01*
X140285Y25463D02*
X145669Y20079D01*
X140285Y25463D02*
Y37135D01*
X144488Y41339D01*
X154823Y45547D02*
Y48799D01*
X144488Y41339D02*
X150614D01*
X154823Y48799D02*
X155118Y49095D01*
X150614Y41339D02*
X154823Y45547D01*
X166791Y25197D02*
X169291Y27697D01*
X158543Y25197D02*
X166791D01*
X169291Y27697D02*
Y46113D01*
X163701Y51704D02*
X169291Y46113D01*
X163701Y51704D02*
Y54528D01*
X158268Y35473D02*
X158543Y35197D01*
X158268Y35473D02*
Y49095D01*
X78589Y90422D02*
X78740Y90573D01*
X72852Y78937D02*
Y81567D01*
Y78937D02*
X74803Y80888D01*
X88292Y92323D02*
X98819D01*
Y100591D01*
X208661Y50394D02*
X217520Y41535D01*
X225837D02*
Y53002D01*
Y30069D02*
Y41535D01*
X217520D02*
X225837D01*
Y53002D02*
X226181Y53347D01*
X225492Y29724D02*
X225837Y30069D01*
X122047Y63976D02*
X130787D01*
X158268Y80515D02*
Y82008D01*
X145669D02*
Y104134D01*
X122047Y70276D02*
X130787D01*
X158268Y80515D02*
X158563Y80220D01*
X236368Y53494D02*
Y78986D01*
X236220Y53347D02*
X236368Y53494D01*
Y78986D02*
X236516Y79134D01*
X233563Y129416D02*
Y141732D01*
X233465Y129317D02*
X233563Y129416D01*
Y141732D02*
X233661Y141831D01*
X145669Y104134D02*
Y115748D01*
X130315Y122244D02*
X139173D01*
X145669Y115748D01*
X218687Y137795D02*
X223228Y133254D01*
X209213Y137795D02*
X218687D01*
X223228Y129317D02*
Y133254D01*
X112205Y9449D02*
X124016D01*
X130315Y122244D02*
Y134055D01*
X192913D02*
X200236D01*
X186220Y131496D02*
X187401Y130315D01*
X200236D01*
X186220Y131496D02*
Y133500D01*
Y136614D02*
X187401Y137795D01*
X200236D01*
X87343Y122244D02*
X87880Y121707D01*
Y101397D02*
X88292Y100984D01*
X87880Y101397D02*
Y121707D01*
X236220Y53347D02*
X236516Y53051D01*
D60*
X107874Y53347D02*
Y62905D01*
Y64086D01*
Y67635D01*
X97638Y67126D02*
Y67635D01*
X92520Y67126D02*
X97638D01*
X7998Y31766D02*
Y59376D01*
Y76181D02*
X16271D01*
X180039Y35197D02*
X191339D01*
X180039Y15197D02*
X191339D01*
X24803Y21260D02*
Y37598D01*
X24016Y38386D02*
X24803Y37598D01*
X7998Y59376D02*
X9843Y61221D01*
X7998Y31766D02*
X14567Y25197D01*
Y21260D02*
Y25197D01*
X9843Y61221D02*
X14961D01*
X72852Y81567D02*
X78589Y87305D01*
Y90422D01*
X165354Y133500D02*
X175984D01*
X24016Y38386D02*
X41339D01*
X47638Y136811D02*
X62992D01*
X186220Y136614D02*
Y137437D01*
Y133500D02*
Y136614D01*
X179760Y143898D02*
X186220Y137437D01*
X92520Y143898D02*
X179760D01*
X81949Y122244D02*
Y133327D01*
X92520Y143898D01*
X101968Y122244D02*
Y134055D01*
X61617Y85436D02*
X81949Y105768D01*
Y122244D01*
X61006Y78937D02*
X61617Y79548D01*
Y85436D01*
X33071Y76181D02*
X59611D01*
X33071D02*
X33071D01*
X35039Y78150D01*
Y84449D01*
X41732Y91142D01*
X45276D02*
X47638Y93504D01*
X41732Y91142D02*
X45276D01*
X59611Y76181D02*
X61006Y77576D01*
Y78937D01*
X33071Y61221D02*
Y76181D01*
X15256Y61516D02*
Y75166D01*
X14961Y61221D02*
X15256Y61516D01*
Y75166D02*
X16271Y76181D01*
Y86350D01*
X23425Y93504D01*
X14961Y61221D02*
X24016D01*
X23425Y136811D02*
X47638D01*
D61*
X129294Y54528D02*
X130787D01*
X128962Y54195D02*
X129294Y54528D01*
X113415Y43504D02*
X127255Y57345D01*
X81988Y37402D02*
X88090Y43504D01*
X113415D01*
X127255Y57345D02*
X130455D01*
X130787Y57677D01*
X75098Y37402D02*
X81988D01*
X128962Y46973D02*
Y54195D01*
X119390Y37402D02*
X128962Y46973D01*
X112500Y37402D02*
X119390D01*
X72835Y35138D02*
X75098Y37402D01*
X72835Y18504D02*
Y35138D01*
X112205Y37106D02*
X112500Y37402D01*
X112205Y18504D02*
Y37106D01*
D62*
X41142Y115157D02*
D03*
D63*
X23425D02*
D03*
D64*
X62598Y11811D02*
D03*
X182133Y46113D02*
D03*
X168110Y103799D02*
D03*
X107874Y53347D02*
D03*
X92520Y67126D02*
D03*
X192913Y134055D02*
D03*
X7998Y76181D02*
D03*
X191339Y35197D02*
D03*
Y15197D02*
D03*
X78740Y90573D02*
D03*
X236516Y79134D02*
D03*
X233661Y141831D02*
D03*
X198078Y65748D02*
D03*
X165354Y133500D02*
D03*
X98819Y100591D02*
D03*
X124016Y9449D02*
D03*
X122047Y70276D02*
D03*
Y63976D02*
D03*
X156201Y91634D02*
D03*
X62992Y136811D02*
D03*
X41339Y38386D02*
D03*
M02*
