G04*
G04 #@! TF.GenerationSoftware,Altium Limited,Altium Designer,22.2.1 (43)*
G04*
G04 Layer_Color=65535*
%FSLAX25Y25*%
%MOIN*%
G70*
G04*
G04 #@! TF.SameCoordinates,AAFBACAA-EC33-4654-A321-DB7F653A4B28*
G04*
G04*
G04 #@! TF.FilePolarity,Positive*
G04*
G01*
G75*
%ADD10C,0.00787*%
%ADD11C,0.01000*%
%ADD12C,0.00600*%
%ADD13C,0.00945*%
%ADD14C,0.00500*%
D10*
X149685Y35197D02*
G03*
X149685Y35197I-394J0D01*
G01*
X172441Y101299D02*
G03*
X172441Y101299I-394J0D01*
G01*
X102362Y117520D02*
G03*
X102362Y117520I-394J0D01*
G01*
X158189Y98524D02*
G03*
X158189Y98524I-394J0D01*
G01*
X33465Y67913D02*
G03*
X33465Y67913I-394J0D01*
G01*
X186070Y71781D02*
X195912D01*
Y48947D02*
Y71781D01*
X176227Y48947D02*
X195912D01*
X176227D02*
Y71781D01*
X186070D01*
X181811Y107087D02*
Y116299D01*
X191811D01*
X181811Y96299D02*
X191811D01*
Y105512D01*
X91338Y67635D02*
Y77477D01*
X114173D01*
Y57792D02*
Y77477D01*
X91338Y57792D02*
X114173D01*
X91338D02*
Y67635D01*
X55610Y132874D02*
X61516D01*
X61614Y97441D02*
Y132874D01*
X55610Y97441D02*
X61516D01*
X3740Y132874D02*
X14370D01*
X3740Y97441D02*
Y132874D01*
Y97441D02*
X14370D01*
X22702Y76181D02*
X26639Y80118D01*
X22702Y76181D02*
X26639Y72244D01*
Y80118D01*
X105512Y100591D02*
Y110433D01*
X128347D01*
Y90748D02*
Y110433D01*
X105512Y90748D02*
X128347D01*
X105512D02*
Y100591D01*
X135827Y90748D02*
X141732D01*
Y108465D01*
X129921D02*
X141732D01*
X129921Y90748D02*
Y108465D01*
Y90748D02*
X135827D01*
X129232Y25591D02*
Y37402D01*
X58366Y25591D02*
X129232D01*
X58366D02*
Y49213D01*
X129232D01*
Y37402D02*
Y49213D01*
X220866Y84252D02*
X230709D01*
X220866D02*
Y107087D01*
X240551D01*
Y84252D02*
Y107087D01*
X230709Y84252D02*
X240551D01*
X216929Y129317D02*
Y139160D01*
X239764D01*
Y119475D02*
Y139160D01*
X216929Y119475D02*
X239764D01*
X216929D02*
Y129317D01*
X192520Y123658D02*
Y133500D01*
X169685Y123658D02*
X192520D01*
X169685D02*
Y143342D01*
X192520D01*
Y133500D02*
Y143342D01*
X31102Y11417D02*
Y21260D01*
X8268Y11417D02*
X31102D01*
X8268D02*
Y31102D01*
X31102D01*
Y21260D02*
Y31102D01*
X240059Y53347D02*
Y59252D01*
X222342D02*
X240059D01*
X222342Y47441D02*
Y59252D01*
Y47441D02*
X240059D01*
Y53347D01*
X211614Y23819D02*
Y29724D01*
Y23819D02*
X229331D01*
Y35630D01*
X211614D02*
X229331D01*
X211614Y29724D02*
Y35630D01*
X219488Y100960D02*
Y106866D01*
X201772D02*
X219488D01*
X201772Y95055D02*
Y106866D01*
Y95055D02*
X219488D01*
Y100960D01*
X184646Y77362D02*
X190551D01*
Y95079D01*
X178740D02*
X190551D01*
X178740Y77362D02*
Y95079D01*
Y77362D02*
X184646D01*
X104331Y4134D02*
X112205D01*
X104331D02*
Y23819D01*
X120079D01*
Y4134D02*
Y23819D01*
X112205Y4134D02*
X120079D01*
X64961D02*
X72835D01*
X64961D02*
Y23819D01*
X80709D01*
Y4134D02*
Y23819D01*
X72835Y4134D02*
X80709D01*
D11*
X197441Y140453D02*
G03*
X197441Y140453I-98J0D01*
G01*
X163598Y118809D02*
X165598D01*
X164598D01*
Y112811D01*
X163598D01*
X165598D01*
X172596D02*
X168597D01*
X172596Y116810D01*
Y117809D01*
X171596Y118809D01*
X169597D01*
X168597Y117809D01*
X178594D02*
X177594Y118809D01*
X175595D01*
X174595Y117809D01*
Y113811D01*
X175595Y112811D01*
X177594D01*
X178594Y113811D01*
X133677Y19597D02*
X135677D01*
X134677D01*
Y13598D01*
X133677D01*
X135677D01*
X142674Y18597D02*
X141675Y19597D01*
X139675D01*
X138675Y18597D01*
Y17597D01*
X139675Y16598D01*
X141675D01*
X142674Y15598D01*
Y14598D01*
X141675Y13598D01*
X139675D01*
X138675Y14598D01*
X144674Y13598D02*
Y19597D01*
X147673D01*
X148672Y18597D01*
Y16598D01*
X147673Y15598D01*
X144674D01*
X217535Y20778D02*
X219535D01*
X218535D01*
Y14780D01*
X217535D01*
X219535D01*
X222534Y18778D02*
X224533Y14780D01*
X226533Y18778D01*
X229532D02*
X231531D01*
X232531Y17779D01*
Y14780D01*
X229532D01*
X228532Y15779D01*
X229532Y16779D01*
X232531D01*
X234530Y14780D02*
Y18778D01*
X237529D01*
X238529Y17779D01*
Y14780D01*
X192975Y10966D02*
X190976D01*
X189976Y9966D01*
Y5968D01*
X190976Y4968D01*
X192975D01*
X193975Y5968D01*
Y9966D01*
X192975Y10966D01*
X195974Y4968D02*
X198974D01*
X199973Y5968D01*
X198974Y6967D01*
X196974D01*
X195974Y7967D01*
X196974Y8967D01*
X199973D01*
X202972Y9966D02*
Y8967D01*
X201973D01*
X203972D01*
X202972D01*
Y5968D01*
X203972Y4968D01*
X207971Y8967D02*
X209970D01*
X210970Y7967D01*
Y4968D01*
X207971D01*
X206971Y5968D01*
X207971Y6967D01*
X210970D01*
X212969Y2968D02*
Y8967D01*
X215968D01*
X216968Y7967D01*
Y5968D01*
X215968Y4968D01*
X212969D01*
X222966Y8967D02*
X219967D01*
X218967Y7967D01*
Y5968D01*
X219967Y4968D01*
X222966D01*
X224965Y10966D02*
Y4968D01*
Y7967D01*
X225965Y8967D01*
X227964D01*
X228964Y7967D01*
Y4968D01*
X230963Y8967D02*
Y5968D01*
X231963Y4968D01*
X234962D01*
Y8967D01*
X236961Y4968D02*
Y10966D01*
Y6967D02*
X239960Y8967D01*
X236961Y6967D02*
X239960Y4968D01*
X201999Y54756D02*
X201000Y55756D01*
X199000D01*
X198001Y54756D01*
Y50757D01*
X199000Y49758D01*
X201000D01*
X201999Y50757D01*
X203999Y54756D02*
X204998Y55756D01*
X206998D01*
X207997Y54756D01*
Y53756D01*
X206998Y52757D01*
X207997Y51757D01*
Y50757D01*
X206998Y49758D01*
X204998D01*
X203999Y50757D01*
Y51757D01*
X204998Y52757D01*
X203999Y53756D01*
Y54756D01*
X204998Y52757D02*
X206998D01*
X198607Y123471D02*
X196607D01*
X197607D01*
Y118473D01*
X196607Y117473D01*
X195608D01*
X194608Y118473D01*
X200606Y122472D02*
X201606Y123471D01*
X203605D01*
X204605Y122472D01*
Y121472D01*
X203605Y120472D01*
X202605D01*
X203605D01*
X204605Y119473D01*
Y118473D01*
X203605Y117473D01*
X201606D01*
X200606Y118473D01*
X70669Y139810D02*
X68670D01*
X69670D01*
Y134812D01*
X68670Y133812D01*
X67670D01*
X66671Y134812D01*
X72669Y133812D02*
X74668D01*
X73668D01*
Y139810D01*
X72669Y138810D01*
X189945Y46700D02*
X187946D01*
X188945D01*
Y41701D01*
X187946Y40702D01*
X186946D01*
X185947Y41701D01*
X195943Y40702D02*
X191945D01*
X195943Y44701D01*
Y45700D01*
X194944Y46700D01*
X192944D01*
X191945Y45700D01*
X59020Y58641D02*
X63018Y52643D01*
Y58641D02*
X59020Y52643D01*
X65018D02*
X67017D01*
X66017D01*
Y58641D01*
X65018Y57641D01*
X199726Y148078D02*
Y143079D01*
X200726Y142080D01*
X202725D01*
X203725Y143079D01*
Y148078D01*
X208723Y142080D02*
Y148078D01*
X205724Y145079D01*
X209723D01*
X39308Y52408D02*
Y47410D01*
X40308Y46410D01*
X42307D01*
X43307Y47410D01*
Y52408D01*
X45306Y46410D02*
X47306D01*
X46306D01*
Y52408D01*
X45306Y51409D01*
X146576Y106798D02*
Y101800D01*
X147576Y100800D01*
X149575D01*
X150575Y101800D01*
Y106798D01*
X156573Y100800D02*
X152575D01*
X156573Y104799D01*
Y105799D01*
X155573Y106798D01*
X153574D01*
X152575Y105799D01*
X115080Y85007D02*
Y80009D01*
X116080Y79009D01*
X118079D01*
X119079Y80009D01*
Y85007D01*
X121078Y84007D02*
X122078Y85007D01*
X124077D01*
X125077Y84007D01*
Y83008D01*
X124077Y82008D01*
X123078D01*
X124077D01*
X125077Y81008D01*
Y80009D01*
X124077Y79009D01*
X122078D01*
X121078Y80009D01*
X101973Y143929D02*
X100973Y144928D01*
X98974D01*
X97974Y143929D01*
Y142929D01*
X98974Y141929D01*
X100973D01*
X101973Y140930D01*
Y139930D01*
X100973Y138930D01*
X98974D01*
X97974Y139930D01*
X103972Y144928D02*
Y138930D01*
X105971Y140930D01*
X107971Y138930D01*
Y144928D01*
X109970Y138930D02*
X111969D01*
X110970D01*
Y144928D01*
X109970Y143929D01*
X223317Y61174D02*
Y67172D01*
X226316D01*
X227316Y66173D01*
Y64173D01*
X226316Y63174D01*
X223317D01*
X225317D02*
X227316Y61174D01*
X229315Y67172D02*
X233314D01*
X231315D01*
Y61174D01*
X235313D02*
X237313D01*
X236313D01*
Y67172D01*
X235313Y66173D01*
X80647Y131056D02*
Y137054D01*
X83646D01*
X84646Y136055D01*
Y134055D01*
X83646Y133055D01*
X80647D01*
X82646D02*
X84646Y131056D01*
X86645D02*
X88644D01*
X87645D01*
Y137054D01*
X86645Y136055D01*
X208781Y108812D02*
Y114810D01*
X211780D01*
X212780Y113810D01*
Y111811D01*
X211780Y110811D01*
X208781D01*
X210781D02*
X212780Y108812D01*
X218778D02*
X214779D01*
X218778Y112811D01*
Y113810D01*
X217778Y114810D01*
X215779D01*
X214779Y113810D01*
X193079Y83221D02*
Y89219D01*
X196078D01*
X197078Y88220D01*
Y86221D01*
X196078Y85221D01*
X193079D01*
X195079D02*
X197078Y83221D01*
X199077Y88220D02*
X200077Y89219D01*
X202076D01*
X203076Y88220D01*
Y87220D01*
X202076Y86221D01*
X201077D01*
X202076D01*
X203076Y85221D01*
Y84221D01*
X202076Y83221D01*
X200077D01*
X199077Y84221D01*
X232206Y28792D02*
Y34790D01*
X235205D01*
X236205Y33791D01*
Y31791D01*
X235205Y30792D01*
X232206D01*
X234206D02*
X236205Y28792D01*
X242203Y34790D02*
X238204D01*
Y31791D01*
X240204Y32791D01*
X241203D01*
X242203Y31791D01*
Y29792D01*
X241203Y28792D01*
X239204D01*
X238204Y29792D01*
X130828Y110387D02*
Y116385D01*
X133827D01*
X134827Y115385D01*
Y113386D01*
X133827Y112386D01*
X130828D01*
X132828D02*
X134827Y110387D01*
X139825D02*
Y116385D01*
X136826Y113386D01*
X140825D01*
X75347Y88035D02*
X81345D01*
Y92033D01*
X75347Y98032D02*
Y94033D01*
X81345D01*
Y98032D01*
X78347Y94033D02*
Y96032D01*
X75347Y100031D02*
X81345D01*
Y103030D01*
X80346Y104030D01*
X76347D01*
X75347Y103030D01*
Y100031D01*
X81345Y106029D02*
Y108028D01*
Y107029D01*
X75347D01*
X76347Y106029D01*
X41012Y79574D02*
Y73576D01*
X44011D01*
X45011Y74576D01*
Y78574D01*
X44011Y79574D01*
X41012D01*
X47010Y73576D02*
X49010D01*
X48010D01*
Y79574D01*
X47010Y78574D01*
X220260Y146487D02*
X219261Y147487D01*
X217261D01*
X216262Y146487D01*
Y142489D01*
X217261Y141489D01*
X219261D01*
X220260Y142489D01*
X222259Y147487D02*
X226258D01*
Y146487D01*
X222259Y142489D01*
Y141489D01*
X160418Y141405D02*
X159418Y142404D01*
X157419D01*
X156419Y141405D01*
Y137406D01*
X157419Y136407D01*
X159418D01*
X160418Y137406D01*
X166416Y142404D02*
X164416Y141405D01*
X162417Y139406D01*
Y137406D01*
X163417Y136407D01*
X165416D01*
X166416Y137406D01*
Y138406D01*
X165416Y139406D01*
X162417D01*
X65604Y92422D02*
X64604Y93421D01*
X62604D01*
X61605Y92422D01*
Y88423D01*
X62604Y87423D01*
X64604D01*
X65604Y88423D01*
X71602Y87423D02*
X67603D01*
X71602Y91422D01*
Y92422D01*
X70602Y93421D01*
X68603D01*
X67603Y92422D01*
X37402Y24047D02*
X36402Y25046D01*
X34403D01*
X33403Y24047D01*
Y20048D01*
X34403Y19048D01*
X36402D01*
X37402Y20048D01*
X39401Y19048D02*
X41400D01*
X40401D01*
Y25046D01*
X39401Y24047D01*
X223803Y80960D02*
X222804Y81960D01*
X220804D01*
X219805Y80960D01*
Y76962D01*
X220804Y75962D01*
X222804D01*
X223803Y76962D01*
X225803Y80960D02*
X226802Y81960D01*
X228802D01*
X229802Y80960D01*
Y79961D01*
X228802Y78961D01*
X227802D01*
X228802D01*
X229802Y77961D01*
Y76962D01*
X228802Y75962D01*
X226802D01*
X225803Y76962D01*
X91383Y21684D02*
X90383Y22684D01*
X88384D01*
X87384Y21684D01*
Y17686D01*
X88384Y16686D01*
X90383D01*
X91383Y17686D01*
X93382Y16686D02*
X95382D01*
X94382D01*
Y22684D01*
X93382Y21684D01*
X98381D02*
X99380Y22684D01*
X101380D01*
X102380Y21684D01*
Y17686D01*
X101380Y16686D01*
X99380D01*
X98381Y17686D01*
Y21684D01*
X56087D02*
X55087Y22684D01*
X53088D01*
X52088Y21684D01*
Y17686D01*
X53088Y16686D01*
X55087D01*
X56087Y17686D01*
X58086D02*
X59086Y16686D01*
X61085D01*
X62085Y17686D01*
Y21684D01*
X61085Y22684D01*
X59086D01*
X58086Y21684D01*
Y20685D01*
X59086Y19685D01*
X62085D01*
X95918Y85841D02*
X94919Y86841D01*
X92919D01*
X91920Y85841D01*
Y81842D01*
X92919Y80843D01*
X94919D01*
X95918Y81842D01*
X101917Y86841D02*
X97918D01*
Y83842D01*
X99917Y84841D01*
X100917D01*
X101917Y83842D01*
Y81842D01*
X100917Y80843D01*
X98917D01*
X97918Y81842D01*
X97426Y96072D02*
X96426Y97072D01*
X94427D01*
X93427Y96072D01*
Y92074D01*
X94427Y91074D01*
X96426D01*
X97426Y92074D01*
X102424Y91074D02*
Y97072D01*
X99425Y94073D01*
X103424D01*
D12*
X87843Y104884D02*
G03*
X87843Y104884I-500J0D01*
G01*
X65748Y73032D02*
X68110D01*
X65748Y84842D02*
X68110D01*
X90098Y95079D02*
Y98228D01*
X84587Y95079D02*
Y98228D01*
D13*
X124595Y76564D02*
G03*
X124595Y76564I-394J0D01*
G01*
D14*
X159783Y9882D02*
X178799D01*
X159783Y40512D02*
X178799D01*
X159783Y9882D02*
Y11437D01*
Y38957D02*
Y40512D01*
X178799Y9882D02*
Y11437D01*
Y38957D02*
Y40512D01*
X16147Y81221D02*
X33194D01*
X16147Y71142D02*
X33194D01*
X161220Y78937D02*
Y79528D01*
X160630D02*
X161220D01*
X160630Y51575D02*
X161220D01*
Y52165D01*
X133268Y51575D02*
Y52165D01*
Y51575D02*
X133858D01*
X133268Y79528D02*
X133858D01*
X133268Y78937D02*
Y79528D01*
X107283Y119291D02*
X125000D01*
X107283D02*
Y137008D01*
X125000D01*
Y119291D02*
Y137008D01*
X167638Y100276D02*
Y101476D01*
Y93602D02*
Y94803D01*
X159764Y100276D02*
Y101476D01*
Y93602D02*
Y94803D01*
X11220Y42913D02*
Y56693D01*
Y42913D02*
X16102D01*
X36811D02*
Y56693D01*
X31929Y42913D02*
X36811D01*
M02*
