G04*
G04 #@! TF.GenerationSoftware,Altium Limited,Altium Designer,22.2.1 (43)*
G04*
G04 Layer_Color=8388736*
%FSLAX25Y25*%
%MOIN*%
G70*
G04*
G04 #@! TF.SameCoordinates,AAFBACAA-EC33-4654-A321-DB7F653A4B28*
G04*
G04*
G04 #@! TF.FilePolarity,Negative*
G04*
G01*
G75*
%ADD22R,0.05940X0.11200*%
%ADD23R,0.02400X0.03500*%
%ADD37R,0.13320X0.05800*%
%ADD38R,0.12611X0.04737*%
%ADD39R,0.14304X0.05800*%
%ADD40R,0.04737X0.12611*%
G04:AMPARAMS|DCode=41|XSize=29.92mil|YSize=45.28mil|CornerRadius=8.85mil|HoleSize=0mil|Usage=FLASHONLY|Rotation=90.000|XOffset=0mil|YOffset=0mil|HoleType=Round|Shape=RoundedRectangle|*
%AMROUNDEDRECTD41*
21,1,0.02992,0.02757,0,0,90.0*
21,1,0.01221,0.04528,0,0,90.0*
1,1,0.01771,0.01378,0.00611*
1,1,0.01771,0.01378,-0.00611*
1,1,0.01771,-0.01378,-0.00611*
1,1,0.01771,-0.01378,0.00611*
%
%ADD41ROUNDEDRECTD41*%
%ADD42R,0.05328X0.13398*%
%ADD43R,0.08674X0.08674*%
%ADD44R,0.09200X0.07887*%
%ADD45R,0.09200X0.07887*%
G04:AMPARAMS|DCode=46|XSize=66.93mil|YSize=23.62mil|CornerRadius=7.19mil|HoleSize=0mil|Usage=FLASHONLY|Rotation=270.000|XOffset=0mil|YOffset=0mil|HoleType=Round|Shape=RoundedRectangle|*
%AMROUNDEDRECTD46*
21,1,0.06693,0.00925,0,0,270.0*
21,1,0.05256,0.02362,0,0,270.0*
1,1,0.01437,-0.00463,-0.02628*
1,1,0.01437,-0.00463,0.02628*
1,1,0.01437,0.00463,0.02628*
1,1,0.01437,0.00463,-0.02628*
%
%ADD46ROUNDEDRECTD46*%
G04:AMPARAMS|DCode=47|XSize=66.93mil|YSize=23.62mil|CornerRadius=7.19mil|HoleSize=0mil|Usage=FLASHONLY|Rotation=180.000|XOffset=0mil|YOffset=0mil|HoleType=Round|Shape=RoundedRectangle|*
%AMROUNDEDRECTD47*
21,1,0.06693,0.00925,0,0,180.0*
21,1,0.05256,0.02362,0,0,180.0*
1,1,0.01437,-0.02628,0.00463*
1,1,0.01437,0.02628,0.00463*
1,1,0.01437,0.02628,-0.00463*
1,1,0.01437,-0.02628,-0.00463*
%
%ADD47ROUNDEDRECTD47*%
%ADD48R,0.07493X0.03359*%
%ADD49R,0.22847X0.09068*%
%ADD50R,0.07099X0.06312*%
%ADD51R,0.03359X0.07493*%
%ADD52R,0.01476X0.01378*%
%ADD53R,0.01378X0.01476*%
%ADD54R,0.10682X0.05131*%
%ADD55R,0.13595X0.09265*%
%ADD56R,0.04540X0.09265*%
%ADD57C,0.07887*%
%ADD58C,0.07099*%
D22*
X61006Y78937D02*
D03*
X72852D02*
D03*
D23*
X88292Y92323D02*
D03*
Y100984D02*
D03*
D37*
X158543Y25197D02*
D03*
X180039D02*
D03*
Y15197D02*
D03*
X158543D02*
D03*
Y35197D02*
D03*
X180039D02*
D03*
D38*
X186070Y55246D02*
D03*
Y65482D02*
D03*
X230709Y100787D02*
D03*
Y90551D02*
D03*
D39*
X192559Y111299D02*
D03*
X181063Y101299D02*
D03*
D40*
X107874Y67635D02*
D03*
X97638D02*
D03*
X122047Y100591D02*
D03*
X111811D02*
D03*
X233465Y129317D02*
D03*
X223228D02*
D03*
X175984Y133500D02*
D03*
X186220D02*
D03*
X14567Y21260D02*
D03*
X24803D02*
D03*
D41*
X200236Y137795D02*
D03*
Y134055D02*
D03*
Y130315D02*
D03*
X210433D02*
D03*
Y137795D02*
D03*
D42*
X88189Y122244D02*
D03*
X81102D02*
D03*
D43*
X23425Y136811D02*
D03*
X47638D02*
D03*
X23425Y93504D02*
D03*
X47638D02*
D03*
D44*
X33071Y76181D02*
D03*
D45*
X16271D02*
D03*
D46*
X136220Y82008D02*
D03*
X139370D02*
D03*
X142520D02*
D03*
X145669D02*
D03*
X148819D02*
D03*
X151969D02*
D03*
X155118D02*
D03*
X158268D02*
D03*
Y49095D02*
D03*
X155118D02*
D03*
X151969D02*
D03*
X148819D02*
D03*
X145669D02*
D03*
X142520D02*
D03*
X139370D02*
D03*
X136220D02*
D03*
D47*
X163701Y76575D02*
D03*
Y73425D02*
D03*
Y70276D02*
D03*
Y67126D02*
D03*
Y63976D02*
D03*
Y60827D02*
D03*
Y57677D02*
D03*
Y54528D02*
D03*
X130787D02*
D03*
Y57677D02*
D03*
Y60827D02*
D03*
Y63976D02*
D03*
Y67126D02*
D03*
Y70276D02*
D03*
Y73425D02*
D03*
Y76575D02*
D03*
D48*
X135827Y94587D02*
D03*
Y104626D02*
D03*
X184646Y81201D02*
D03*
Y91240D02*
D03*
D49*
X75098Y37402D02*
D03*
X112500D02*
D03*
D50*
X101968Y122244D02*
D03*
X130315D02*
D03*
X101968Y134055D02*
D03*
X130315D02*
D03*
D51*
X236220Y53347D02*
D03*
X226181D02*
D03*
X215453Y29724D02*
D03*
X225492D02*
D03*
X215650Y100960D02*
D03*
X205610D02*
D03*
D52*
X160699Y98524D02*
D03*
Y96555D02*
D03*
X166703D02*
D03*
Y98524D02*
D03*
D53*
X161732Y94537D02*
D03*
X163701D02*
D03*
X165669D02*
D03*
Y100541D02*
D03*
X163701D02*
D03*
X161732D02*
D03*
D54*
X112205Y18504D02*
D03*
Y9449D02*
D03*
X72835Y18504D02*
D03*
Y9449D02*
D03*
D55*
X24016Y38386D02*
D03*
D56*
X14961Y61221D02*
D03*
X24016D02*
D03*
X33071D02*
D03*
D57*
X41142Y115157D02*
D03*
D58*
X23425D02*
D03*
M02*
