G04*
G04 #@! TF.GenerationSoftware,Altium Limited,Altium Designer,22.2.1 (43)*
G04*
G04 Layer_Color=8421504*
%FSLAX25Y25*%
%MOIN*%
G70*
G04*
G04 #@! TF.SameCoordinates,AAFBACAA-EC33-4654-A321-DB7F653A4B28*
G04*
G04*
G04 #@! TF.FilePolarity,Positive*
G04*
G01*
G75*
%ADD15R,0.12520X0.05000*%
%ADD16R,0.11811X0.03937*%
%ADD17R,0.13504X0.05000*%
%ADD18R,0.03937X0.11811*%
G04:AMPARAMS|DCode=19|XSize=25.98mil|YSize=41.34mil|CornerRadius=6.89mil|HoleSize=0mil|Usage=FLASHONLY|Rotation=90.000|XOffset=0mil|YOffset=0mil|HoleType=Round|Shape=RoundedRectangle|*
%AMROUNDEDRECTD19*
21,1,0.02598,0.02757,0,0,90.0*
21,1,0.01221,0.04134,0,0,90.0*
1,1,0.01377,0.01378,0.00611*
1,1,0.01377,0.01378,-0.00611*
1,1,0.01377,-0.01378,-0.00611*
1,1,0.01377,-0.01378,0.00611*
%
%ADD19ROUNDEDRECTD19*%
%ADD20R,0.04528X0.12598*%
%ADD21R,0.07874X0.07874*%
%ADD22R,0.05940X0.11200*%
%ADD23R,0.02400X0.03500*%
%ADD24R,0.08400X0.07087*%
%ADD25R,0.08400X0.07087*%
G04:AMPARAMS|DCode=26|XSize=62.99mil|YSize=19.68mil|CornerRadius=5.22mil|HoleSize=0mil|Usage=FLASHONLY|Rotation=270.000|XOffset=0mil|YOffset=0mil|HoleType=Round|Shape=RoundedRectangle|*
%AMROUNDEDRECTD26*
21,1,0.06299,0.00925,0,0,270.0*
21,1,0.05256,0.01968,0,0,270.0*
1,1,0.01043,-0.00463,-0.02628*
1,1,0.01043,-0.00463,0.02628*
1,1,0.01043,0.00463,0.02628*
1,1,0.01043,0.00463,-0.02628*
%
%ADD26ROUNDEDRECTD26*%
G04:AMPARAMS|DCode=27|XSize=62.99mil|YSize=19.68mil|CornerRadius=5.22mil|HoleSize=0mil|Usage=FLASHONLY|Rotation=180.000|XOffset=0mil|YOffset=0mil|HoleType=Round|Shape=RoundedRectangle|*
%AMROUNDEDRECTD27*
21,1,0.06299,0.00925,0,0,180.0*
21,1,0.05256,0.01968,0,0,180.0*
1,1,0.01043,-0.02628,0.00463*
1,1,0.01043,0.02628,0.00463*
1,1,0.01043,0.02628,-0.00463*
1,1,0.01043,-0.02628,-0.00463*
%
%ADD27ROUNDEDRECTD27*%
%ADD28R,0.06693X0.02559*%
%ADD29R,0.22047X0.08268*%
%ADD30R,0.06299X0.05512*%
%ADD31R,0.02559X0.06693*%
%ADD32R,0.01083X0.00984*%
%ADD33R,0.00984X0.01083*%
%ADD34R,0.09882X0.04331*%
%ADD35R,0.12795X0.08465*%
%ADD36R,0.03740X0.08465*%
D15*
X158543Y25197D02*
D03*
X180039D02*
D03*
Y15197D02*
D03*
X158543D02*
D03*
Y35197D02*
D03*
X180039D02*
D03*
D16*
X186070Y55246D02*
D03*
Y65482D02*
D03*
X230709Y100787D02*
D03*
Y90551D02*
D03*
D17*
X192559Y111299D02*
D03*
X181063Y101299D02*
D03*
D18*
X107874Y67635D02*
D03*
X97638D02*
D03*
X122047Y100591D02*
D03*
X111811D02*
D03*
X233465Y129317D02*
D03*
X223228D02*
D03*
X175984Y133500D02*
D03*
X186220D02*
D03*
X14567Y21260D02*
D03*
X24803D02*
D03*
D19*
X200236Y137795D02*
D03*
Y134055D02*
D03*
Y130315D02*
D03*
X210433D02*
D03*
Y137795D02*
D03*
D20*
X88189Y122244D02*
D03*
X81102D02*
D03*
D21*
X23425Y136811D02*
D03*
X47638D02*
D03*
X23425Y93504D02*
D03*
X47638D02*
D03*
D22*
X61006Y78937D02*
D03*
X72852D02*
D03*
D23*
X88292Y92323D02*
D03*
Y100984D02*
D03*
D24*
X33071Y76181D02*
D03*
D25*
X16271D02*
D03*
D26*
X136220Y82008D02*
D03*
X139370D02*
D03*
X142520D02*
D03*
X145669D02*
D03*
X148819D02*
D03*
X151969D02*
D03*
X155118D02*
D03*
X158268D02*
D03*
Y49095D02*
D03*
X155118D02*
D03*
X151969D02*
D03*
X148819D02*
D03*
X145669D02*
D03*
X142520D02*
D03*
X139370D02*
D03*
X136220D02*
D03*
D27*
X163701Y76575D02*
D03*
Y73425D02*
D03*
Y70276D02*
D03*
Y67126D02*
D03*
Y63976D02*
D03*
Y60827D02*
D03*
Y57677D02*
D03*
Y54528D02*
D03*
X130787D02*
D03*
Y57677D02*
D03*
Y60827D02*
D03*
Y63976D02*
D03*
Y67126D02*
D03*
Y70276D02*
D03*
Y73425D02*
D03*
Y76575D02*
D03*
D28*
X135827Y94587D02*
D03*
Y104626D02*
D03*
X184646Y81201D02*
D03*
Y91240D02*
D03*
D29*
X75098Y37402D02*
D03*
X112500D02*
D03*
D30*
X101968Y122244D02*
D03*
X130315D02*
D03*
X101968Y134055D02*
D03*
X130315D02*
D03*
D31*
X236220Y53347D02*
D03*
X226181D02*
D03*
X215453Y29724D02*
D03*
X225492D02*
D03*
X215650Y100960D02*
D03*
X205610D02*
D03*
D32*
X160699Y98524D02*
D03*
Y96555D02*
D03*
X166703D02*
D03*
Y98524D02*
D03*
D33*
X161732Y94537D02*
D03*
X163701D02*
D03*
X165669D02*
D03*
Y100541D02*
D03*
X163701D02*
D03*
X161732D02*
D03*
D34*
X112205Y18504D02*
D03*
Y9449D02*
D03*
X72835Y18504D02*
D03*
Y9449D02*
D03*
D35*
X24016Y38386D02*
D03*
D36*
X14961Y61221D02*
D03*
X24016D02*
D03*
X33071D02*
D03*
M02*
