G04*
G04 #@! TF.GenerationSoftware,Altium Limited,Altium Designer,22.2.1 (43)*
G04*
G04 Layer_Physical_Order=2*
G04 Layer_Color=16711680*
%FSLAX25Y25*%
%MOIN*%
G70*
G04*
G04 #@! TF.SameCoordinates,AAFBACAA-EC33-4654-A321-DB7F653A4B28*
G04*
G04*
G04 #@! TF.FilePolarity,Positive*
G04*
G01*
G75*
%ADD62C,0.07087*%
%ADD63C,0.06299*%
%ADD64C,0.02362*%
G36*
X240158Y3150D02*
X3937D01*
Y146457D01*
X240158D01*
Y3150D01*
D02*
G37*
%LPC*%
G36*
X234161Y143984D02*
Y142331D01*
X235815D01*
X235510Y143066D01*
X234897Y143680D01*
X234161Y143984D01*
D02*
G37*
G36*
X233161D02*
X232426Y143680D01*
X231812Y143066D01*
X231508Y142331D01*
X233161D01*
Y143984D01*
D02*
G37*
G36*
X235815Y141331D02*
X234161D01*
Y139677D01*
X234897Y139982D01*
X235510Y140595D01*
X235815Y141331D01*
D02*
G37*
G36*
X233161D02*
X231508D01*
X231812Y140595D01*
X232426Y139982D01*
X233161Y139677D01*
Y141331D01*
D02*
G37*
G36*
X63492Y138965D02*
Y137311D01*
X65146D01*
X64841Y138047D01*
X64228Y138660D01*
X63492Y138965D01*
D02*
G37*
G36*
X62492D02*
X61757Y138660D01*
X61143Y138047D01*
X60838Y137311D01*
X62492D01*
Y138965D01*
D02*
G37*
G36*
X65146Y136311D02*
X63492D01*
Y134657D01*
X64228Y134962D01*
X64841Y135575D01*
X65146Y136311D01*
D02*
G37*
G36*
X62492D02*
X60838D01*
X61143Y135575D01*
X61757Y134962D01*
X62492Y134657D01*
Y136311D01*
D02*
G37*
G36*
X193413Y136209D02*
Y134555D01*
X195067D01*
X194762Y135291D01*
X194149Y135904D01*
X193413Y136209D01*
D02*
G37*
G36*
X192413D02*
X191678Y135904D01*
X191064Y135291D01*
X190760Y134555D01*
X192413D01*
Y136209D01*
D02*
G37*
G36*
X165854Y135654D02*
Y134000D01*
X167508D01*
X167203Y134736D01*
X166590Y135349D01*
X165854Y135654D01*
D02*
G37*
G36*
X164854D02*
X164119Y135349D01*
X163505Y134736D01*
X163201Y134000D01*
X164854D01*
Y135654D01*
D02*
G37*
G36*
X195067Y133555D02*
X193413D01*
Y131901D01*
X194149Y132206D01*
X194762Y132820D01*
X195067Y133555D01*
D02*
G37*
G36*
X192413D02*
X190760D01*
X191064Y132820D01*
X191678Y132206D01*
X192413Y131901D01*
Y133555D01*
D02*
G37*
G36*
X167508Y133000D02*
X165854D01*
Y131346D01*
X166590Y131651D01*
X167203Y132264D01*
X167508Y133000D01*
D02*
G37*
G36*
X164854D02*
X163201D01*
X163505Y132264D01*
X164119Y131651D01*
X164854Y131346D01*
Y133000D01*
D02*
G37*
G36*
X23918Y118898D02*
X22933D01*
X21982Y118643D01*
X21129Y118150D01*
X20432Y117454D01*
X19940Y116601D01*
X19685Y115650D01*
Y114665D01*
X19940Y113714D01*
X20432Y112861D01*
X21129Y112165D01*
X21982Y111672D01*
X22933Y111417D01*
X23918D01*
X24869Y111672D01*
X25722Y112165D01*
X26418Y112861D01*
X26910Y113714D01*
X27165Y114665D01*
Y115650D01*
X26910Y116601D01*
X26418Y117454D01*
X25722Y118150D01*
X24869Y118643D01*
X23918Y118898D01*
D02*
G37*
G36*
X41686Y119291D02*
X40598D01*
X39546Y119010D01*
X38603Y118465D01*
X37834Y117696D01*
X37290Y116753D01*
X37008Y115702D01*
Y114613D01*
X37290Y113562D01*
X37834Y112619D01*
X38603Y111850D01*
X39546Y111305D01*
X40598Y111024D01*
X41686D01*
X42737Y111305D01*
X43680Y111850D01*
X44450Y112619D01*
X44994Y113562D01*
X45276Y114613D01*
Y115702D01*
X44994Y116753D01*
X44450Y117696D01*
X43680Y118465D01*
X42737Y119010D01*
X41686Y119291D01*
D02*
G37*
G36*
X168610Y105953D02*
Y104299D01*
X170264D01*
X169959Y105035D01*
X169346Y105648D01*
X168610Y105953D01*
D02*
G37*
G36*
X167610D02*
X166875Y105648D01*
X166261Y105035D01*
X165956Y104299D01*
X167610D01*
Y105953D01*
D02*
G37*
G36*
X170264Y103299D02*
X168610D01*
Y101646D01*
X169346Y101950D01*
X169959Y102564D01*
X170264Y103299D01*
D02*
G37*
G36*
X167610D02*
X165956D01*
X166261Y102564D01*
X166875Y101950D01*
X167610Y101646D01*
Y103299D01*
D02*
G37*
G36*
X99319Y102744D02*
Y101091D01*
X100972D01*
X100668Y101826D01*
X100054Y102440D01*
X99319Y102744D01*
D02*
G37*
G36*
X98319D02*
X97583Y102440D01*
X96970Y101826D01*
X96665Y101091D01*
X98319D01*
Y102744D01*
D02*
G37*
G36*
X100972Y100091D02*
X99319D01*
Y98437D01*
X100054Y98742D01*
X100668Y99355D01*
X100972Y100091D01*
D02*
G37*
G36*
X98319D02*
X96665D01*
X96970Y99355D01*
X97583Y98742D01*
X98319Y98437D01*
Y100091D01*
D02*
G37*
G36*
X156701Y93788D02*
Y92134D01*
X158354D01*
X158050Y92869D01*
X157436Y93483D01*
X156701Y93788D01*
D02*
G37*
G36*
X155701D02*
X154965Y93483D01*
X154352Y92869D01*
X154047Y92134D01*
X155701D01*
Y93788D01*
D02*
G37*
G36*
X79240Y92726D02*
Y91073D01*
X80894D01*
X80589Y91808D01*
X79976Y92422D01*
X79240Y92726D01*
D02*
G37*
G36*
X78240D02*
X77505Y92422D01*
X76891Y91808D01*
X76587Y91073D01*
X78240D01*
Y92726D01*
D02*
G37*
G36*
X158354Y91134D02*
X156701D01*
Y89480D01*
X157436Y89785D01*
X158050Y90398D01*
X158354Y91134D01*
D02*
G37*
G36*
X155701D02*
X154047D01*
X154352Y90398D01*
X154965Y89785D01*
X155701Y89480D01*
Y91134D01*
D02*
G37*
G36*
X80894Y90073D02*
X79240D01*
Y88419D01*
X79976Y88724D01*
X80589Y89337D01*
X80894Y90073D01*
D02*
G37*
G36*
X78240D02*
X76587D01*
X76891Y89337D01*
X77505Y88724D01*
X78240Y88419D01*
Y90073D01*
D02*
G37*
G36*
X237016Y81288D02*
Y79634D01*
X238669D01*
X238365Y80369D01*
X237751Y80983D01*
X237016Y81288D01*
D02*
G37*
G36*
X236016D02*
X235280Y80983D01*
X234667Y80369D01*
X234362Y79634D01*
X236016D01*
Y81288D01*
D02*
G37*
G36*
X238669Y78634D02*
X237016D01*
Y76980D01*
X237751Y77285D01*
X238365Y77898D01*
X238669Y78634D01*
D02*
G37*
G36*
X236016D02*
X234362D01*
X234667Y77898D01*
X235280Y77285D01*
X236016Y76980D01*
Y78634D01*
D02*
G37*
G36*
X8497Y78335D02*
Y76681D01*
X10151D01*
X9847Y77417D01*
X9233Y78030D01*
X8497Y78335D01*
D02*
G37*
G36*
X7497D02*
X6762Y78030D01*
X6148Y77417D01*
X5844Y76681D01*
X7497D01*
Y78335D01*
D02*
G37*
G36*
X10151Y75681D02*
X8497D01*
Y74027D01*
X9233Y74332D01*
X9847Y74946D01*
X10151Y75681D01*
D02*
G37*
G36*
X7497D02*
X5844D01*
X6148Y74946D01*
X6762Y74332D01*
X7497Y74027D01*
Y75681D01*
D02*
G37*
G36*
X69291Y84301D02*
X64567D01*
X64115Y84113D01*
X63928Y83661D01*
Y74213D01*
X64115Y73761D01*
X64567Y73573D01*
X69291D01*
X69743Y73761D01*
X69930Y74213D01*
Y83661D01*
X69743Y84113D01*
X69291Y84301D01*
D02*
G37*
G36*
X122547Y72429D02*
Y70776D01*
X124201D01*
X123896Y71511D01*
X123283Y72125D01*
X122547Y72429D01*
D02*
G37*
G36*
X121547D02*
X120812Y72125D01*
X120198Y71511D01*
X119894Y70776D01*
X121547D01*
Y72429D01*
D02*
G37*
G36*
X198578Y71445D02*
Y69791D01*
X200231D01*
X199927Y70527D01*
X199313Y71140D01*
X198578Y71445D01*
D02*
G37*
G36*
X197578D02*
X196842Y71140D01*
X196229Y70527D01*
X195924Y69791D01*
X197578D01*
Y71445D01*
D02*
G37*
G36*
X124201Y69776D02*
X122547D01*
Y68122D01*
X123283Y68427D01*
X123896Y69040D01*
X124201Y69776D01*
D02*
G37*
G36*
X121547D02*
X119894D01*
X120198Y69040D01*
X120812Y68427D01*
X121547Y68122D01*
Y69776D01*
D02*
G37*
G36*
X93020Y69280D02*
Y67626D01*
X94673D01*
X94369Y68362D01*
X93755Y68975D01*
X93020Y69280D01*
D02*
G37*
G36*
X92020D02*
X91284Y68975D01*
X90671Y68362D01*
X90366Y67626D01*
X92020D01*
Y69280D01*
D02*
G37*
G36*
X200231Y68791D02*
X198578D01*
Y67138D01*
X199313Y67442D01*
X199927Y68056D01*
X200231Y68791D01*
D02*
G37*
G36*
X197578D02*
X195924D01*
X196229Y68056D01*
X196842Y67442D01*
X197578Y67138D01*
Y68791D01*
D02*
G37*
G36*
X94673Y66626D02*
X93020D01*
Y64972D01*
X93755Y65277D01*
X94369Y65891D01*
X94673Y66626D01*
D02*
G37*
G36*
X92020D02*
X90366D01*
X90671Y65891D01*
X91284Y65277D01*
X92020Y64972D01*
Y66626D01*
D02*
G37*
G36*
X122547Y66130D02*
Y64476D01*
X124201D01*
X123896Y65212D01*
X123283Y65825D01*
X122547Y66130D01*
D02*
G37*
G36*
X121547D02*
X120812Y65825D01*
X120198Y65212D01*
X119894Y64476D01*
X121547D01*
Y66130D01*
D02*
G37*
G36*
X124201Y63476D02*
X122547D01*
Y61823D01*
X123283Y62127D01*
X123896Y62741D01*
X124201Y63476D01*
D02*
G37*
G36*
X121547D02*
X119894D01*
X120198Y62741D01*
X120812Y62127D01*
X121547Y61823D01*
Y63476D01*
D02*
G37*
G36*
X200787Y57923D02*
X41339D01*
X40887Y57736D01*
X40699Y57284D01*
Y44143D01*
X35433D01*
X34981Y43956D01*
X34794Y43504D01*
Y33661D01*
X34981Y33209D01*
X35433Y33022D01*
X48228D01*
X48680Y33209D01*
X64241Y48770D01*
X176526D01*
Y29528D01*
X176713Y29076D01*
X177165Y28888D01*
X200787D01*
X201239Y29076D01*
X201427Y29528D01*
Y57284D01*
X201239Y57736D01*
X200787Y57923D01*
D02*
G37*
G36*
X191839Y17351D02*
Y15697D01*
X193492D01*
X193188Y16432D01*
X192574Y17046D01*
X191839Y17351D01*
D02*
G37*
G36*
X190839D02*
X190103Y17046D01*
X189489Y16432D01*
X189185Y15697D01*
X190839D01*
Y17351D01*
D02*
G37*
G36*
X193492Y14697D02*
X191839D01*
Y13043D01*
X192574Y13348D01*
X193188Y13961D01*
X193492Y14697D01*
D02*
G37*
G36*
X190839D02*
X189185D01*
X189489Y13961D01*
X190103Y13348D01*
X190839Y13043D01*
Y14697D01*
D02*
G37*
G36*
X124516Y11603D02*
Y9949D01*
X126169D01*
X125865Y10684D01*
X125251Y11298D01*
X124516Y11603D01*
D02*
G37*
G36*
X123516D02*
X122780Y11298D01*
X122167Y10684D01*
X121862Y9949D01*
X123516D01*
Y11603D01*
D02*
G37*
G36*
X61524D02*
Y9949D01*
X63177D01*
X62873Y10684D01*
X62259Y11298D01*
X61524Y11603D01*
D02*
G37*
G36*
X60524D02*
X59788Y11298D01*
X59175Y10684D01*
X58870Y9949D01*
X60524D01*
Y11603D01*
D02*
G37*
G36*
X126169Y8949D02*
X124516D01*
Y7295D01*
X125251Y7600D01*
X125865Y8213D01*
X126169Y8949D01*
D02*
G37*
G36*
X123516D02*
X121862D01*
X122167Y8213D01*
X122780Y7600D01*
X123516Y7295D01*
Y8949D01*
D02*
G37*
G36*
X63177D02*
X61524D01*
Y7295D01*
X62259Y7600D01*
X62873Y8213D01*
X63177Y8949D01*
D02*
G37*
G36*
X60524D02*
X58870D01*
X59175Y8213D01*
X59788Y7600D01*
X60524Y7295D01*
Y8949D01*
D02*
G37*
%LPD*%
G36*
X200787Y29528D02*
X177165D01*
Y49409D01*
X63976D01*
X48228Y33661D01*
X35433D01*
Y43504D01*
X41339D01*
Y57284D01*
X200787D01*
Y29528D01*
D02*
G37*
%LPC*%
G36*
X108374Y55471D02*
Y53847D01*
X109998D01*
X109929Y54198D01*
X109447Y54919D01*
X108725Y55401D01*
X108374Y55471D01*
D02*
G37*
G36*
X107374D02*
X107023Y55401D01*
X106301Y54919D01*
X105819Y54198D01*
X105750Y53847D01*
X107374D01*
Y55471D01*
D02*
G37*
G36*
X109998Y52846D02*
X108374D01*
Y51222D01*
X108725Y51292D01*
X109447Y51774D01*
X109929Y52495D01*
X109998Y52846D01*
D02*
G37*
G36*
X107374D02*
X105750D01*
X105819Y52495D01*
X106301Y51774D01*
X107023Y51292D01*
X107374Y51222D01*
Y52846D01*
D02*
G37*
G36*
X182633Y48237D02*
Y46613D01*
X184257D01*
X184187Y46964D01*
X183705Y47685D01*
X182984Y48167D01*
X182633Y48237D01*
D02*
G37*
G36*
X181633D02*
X181282Y48167D01*
X180560Y47685D01*
X180078Y46964D01*
X180008Y46613D01*
X181633D01*
Y48237D01*
D02*
G37*
G36*
X184257Y45613D02*
X182633D01*
Y43989D01*
X182984Y44058D01*
X183705Y44541D01*
X184187Y45262D01*
X184257Y45613D01*
D02*
G37*
G36*
X181633D02*
X180008D01*
X180078Y45262D01*
X180560Y44541D01*
X181282Y44058D01*
X181633Y43989D01*
Y45613D01*
D02*
G37*
G36*
X41838Y40510D02*
Y38886D01*
X43463D01*
X43393Y39237D01*
X42911Y39958D01*
X42190Y40440D01*
X41838Y40510D01*
D02*
G37*
G36*
X40839D02*
X40488Y40440D01*
X39766Y39958D01*
X39284Y39237D01*
X39214Y38886D01*
X40839D01*
Y40510D01*
D02*
G37*
G36*
X43463Y37886D02*
X41838D01*
Y36261D01*
X42190Y36331D01*
X42911Y36813D01*
X43393Y37535D01*
X43463Y37886D01*
D02*
G37*
G36*
X40839D02*
X39214D01*
X39284Y37535D01*
X39766Y36813D01*
X40488Y36331D01*
X40839Y36261D01*
Y37886D01*
D02*
G37*
G36*
X191839Y37321D02*
Y35697D01*
X193463D01*
X193393Y36048D01*
X192911Y36769D01*
X192190Y37251D01*
X191839Y37321D01*
D02*
G37*
G36*
X190839D02*
X190488Y37251D01*
X189766Y36769D01*
X189284Y36048D01*
X189214Y35697D01*
X190839D01*
Y37321D01*
D02*
G37*
G36*
X193463Y34697D02*
X191839D01*
Y33073D01*
X192190Y33142D01*
X192911Y33624D01*
X193393Y34346D01*
X193463Y34697D01*
D02*
G37*
G36*
X190839D02*
X189214D01*
X189284Y34346D01*
X189766Y33624D01*
X190488Y33142D01*
X190839Y33073D01*
Y34697D01*
D02*
G37*
%LPD*%
D62*
X41142Y115157D02*
D03*
D63*
X23425D02*
D03*
D64*
X62598Y11811D02*
D03*
X182133Y46113D02*
D03*
X168110Y103799D02*
D03*
X107874Y53347D02*
D03*
X92520Y67126D02*
D03*
X192913Y134055D02*
D03*
X7998Y76181D02*
D03*
X191339Y35197D02*
D03*
Y15197D02*
D03*
X78740Y90573D02*
D03*
X236516Y79134D02*
D03*
X233661Y141831D02*
D03*
X198078Y65748D02*
D03*
X165354Y133500D02*
D03*
X98819Y100591D02*
D03*
X124016Y9449D02*
D03*
X122047Y70276D02*
D03*
Y63976D02*
D03*
X156201Y91634D02*
D03*
X62992Y136811D02*
D03*
X41339Y38386D02*
D03*
M02*
