M48
;Layer_Color=9474304
;FILE_FORMAT=2:5
INCH,LZ
;TYPE=PLATED
T1F00S00C0.01181
;TYPE=NON_PLATED
T2F00S00C0.06299
T3F00S00C0.07087
%
T01
X0191339Y0015197
Y0035197
X0182133Y0046113
X0198078Y0065748
X0236516Y0079134
X0233661Y0141831
X0192913Y0134055
X0165354Y01335
X016811Y0103799
X0156201Y0091634
X0122047Y0070276
Y0063976
X0107874Y0053347
X009252Y0067126
X007874Y0090573
X0098819Y0100591
X0062992Y0136811
X0007998Y0076181
X0041339Y0038386
X0062598Y0011811
X0124016Y0009449
T02
X0023425Y0115157
T03
X0041142Y0115157
M30
